inDegrees=yes
name=ik_lifting_orientations
DataType=double
version=3
OpenSimVersion=4.5-2024-01-10-34fd6af
endheader
time	pelvis_tilt	pelvis_list	pelvis_rotation	pelvis_tx	pelvis_ty	pelvis_tz	hip_flexion_r	hip_adduction_r	hip_rotation_r	knee_angle_r	knee_angle_r_beta	ankle_angle_r	subtalar_angle_r	mtp_angle_r	hip_flexion_l	hip_adduction_l	hip_rotation_l	knee_angle_l	knee_angle_l_beta	ankle_angle_l	subtalar_angle_l	mtp_angle_l	lumbar_extension	lumbar_bending	lumbar_rotation	arm_flex_r	arm_add_r	arm_rot_r	elbow_flex_r	pro_sup_r	wrist_flex_r	wrist_dev_r	arm_flex_l	arm_add_l	arm_rot_l	elbow_flex_l	pro_sup_l	wrist_flex_l	wrist_dev_l
1.77	-0.003143581280495983	-0.01226751748737115	90.00034283481017	0	0.9399999998679526	0	44.88639090636011	-10.00858599869433	0	59.7764764849594	1.043296329903508	-5.001133879261844	0	0	44.88639090636011	-10.00858599869433	0	59.7764764849594	1.043296329903508	-5.001133879261844	0	0	-82.12677672090611	5.211680994685647	1.021944244360512	81.93538628931462	-1.806073100661875	5.046321794461405	0.4970982169623574	1.277477318367741	0	0	0	-12.68713551674356	0	88.74511606221711	1.277477318367741	0	0
1.78	-0.003247158020028743	-0.01326016432576976	90.00043271909063	0	0.9399999998679526	0	44.88641293643418	-10.00858016171969	0	59.7765104048876	1.043296921917937	-5.001132873215738	0	0	44.88641293643418	-10.00858016171969	0	59.7765104048876	1.043296921917937	-5.001132873215738	0	0	-82.31074531480576	5.213973787854523	0.9788847263805444	82.1204599498861	-1.747871092609072	5.059815584571319	0.4976922502997114	1.277305158411834	0	0	0	-12.68736464374801	0	88.74528515276324	1.277305158411834	0	0
1.79	0.003191453771647012	-0.007214474490478297	89.99822219146405	0	0.9399999998679526	0	44.89050353855098	-10.00764474056262	0	59.78289316578923	1.043408322111038	-5.000980383473193	0	0	44.89050353855098	-10.00764474056262	0	59.78289316578923	1.043408322111038	-5.000980383473193	0	0	-82.45054829653853	5.211323006188854	0.939930867872962	82.18413928241945	-1.70997287922233	5.067000482352654	0.6272633254260103	1.244702866001362	0	0	0	-12.73128075351793	0	88.77730620938745	1.244702866001362	0	0
1.8	-0.005818455631644059	-0.0210030759377137	90.00024056824506	0	0.9399999998679526	0	44.89052840722166	-10.00763870357027	0	59.78293200182782	1.04340899992778	-5.000979374706496	0	0	44.89052840722166	-10.00763870357027	0	59.78293200182782	1.04340899992778	-5.000979374706496	0	0	-82.71033072990322	5.217941083938322	1.13636346944096	82.52631334578523	-1.870009719788393	5.054824783386605	0.4903605031512871	1.244505910782258	0	0	0	-12.73154519841654	0	88.77749965322035	1.244505910782258	0	0
1.81	-0.02084781478499076	-0.02527061801706713	90.00329044738926	0	0.9399999998679526	0	44.89054974406377	-10.00763350986436	0	59.78296523681126	1.043409579987668	-5.000978506506471	0	0	44.89054974406377	-10.00763350986436	0	59.78296523681126	1.043409579987668	-5.000978506506471	0	0	-82.97967052099251	5.218352284008095	1.33465350191018	82.79642223487139	-2.062846416193528	5.038129128652783	0.4972640429237287	1.244337086487897	0	0	0	-12.7317716867684	0	88.77766546765231	1.244337086487897	0	0
1.82	-0.01061446178128322	-0.01761619716002489	90.00138563120107	0	0.9399999998679526	0	44.89057390897688	-10.00762762275002	0	59.78300283713119	1.043410236237051	-5.000977522350788	0	0	44.89057390897688	-10.00762762275002	0	59.78300283713119	1.043410236237051	-5.000977522350788	0	0	-83.30645987656199	5.162575520522148	1.569509352629919	83.11414340494238	-2.248514793832921	4.96323732145328	0.4960659127260349	1.244145954507875	0	0	0	-12.73202801947684	0	88.7778531920586	1.244145954507875	0	0
1.83	-0.02066952759674891	-0.02491988888495213	90.00204121417774	0	0.9399999998679526	0	44.89059542812212	-10.00762240129164	0	59.78303643005535	1.043410822544182	-5.000976650154669	0	0	44.89059542812212	-10.00762240129164	0	59.78303643005535	1.043410822544182	-5.000976650154669	0	0	-83.47894612386992	5.163265400248129	1.825590056528477	83.29267450293631	-2.49598945518043	4.943018029490881	0.4944181504789777	1.243975531789498	0	0	0	-12.73225682987613	0	88.7780205764217	1.243975531789498	0	0
1.84	-0.008837671283402885	-0.01823488734449937	90.00160140470309	0	0.9399999998679526	0	44.89061979722428	-10.00761646282671	0	59.78307430938502	1.043411483663204	-5.000975657619764	0	0	44.89061979722428	-10.00761646282671	0	59.78307430938502	1.043411483663204	-5.000975657619764	0	0	-83.74818853719154	5.096263828786334	1.986269082586807	83.55240810036712	-2.614986130853456	4.867005906384807	0.4959509332462034	1.243782842054435	0	0	0	-12.73251517705644	0	88.77820983080962	1.243782842054435	0	0
1.85	-0.004573855252163677	-0.02123143094202531	89.99040010877997	0	0.9399999998679526	0	44.89392274827776	-10.00689071996122	0	59.78824677269024	1.043501760178318	-5.000859268943786	0	0	44.89392274827776	-10.00689071996122	0	59.78824677269024	1.043501760178318	-5.000859268943786	0	0	-83.81042633708344	4.970191967782917	1.889034814616896	83.62311518051675	-2.496625078552871	4.771839020929958	0.4888955185618167	1.217324040986017	0	0	0	-12.76826641819606	0	88.80419692712456	1.217324040986017	0	0
1.86	0.001492444680259729	-0.01582342223911972	90.00122157477081	0	0.9399999998679526	0	44.89394887391303	-10.00688480284416	0	59.78828779409943	1.043502476136973	-5.000858306746959	0	0	44.89394887391303	-10.00688480284416	0	59.78828779409943	1.043502476136973	-5.000858306746959	0	0	-83.87580617280784	4.859984508346739	1.596457303296994	83.67664336503104	-2.18125842777246	4.682986308006545	0.4931063589884462	1.217115280374543	0	0	0	-12.76854822328249	0	88.80440196594597	1.217115280374543	0	0
